<svg xmlns="http://www.w3.org/2000/svg" width="1200" height="675" viewBox="0 0 1200 675">
  <defs>
    <linearGradient id="bg" x1="0" y1="0" x2="1" y2="1">
      <stop offset="0" stop-color="#08111f"/>
      <stop offset="1" stop-color="#111827"/>
    </linearGradient>
    <linearGradient id="accent" x1="0" y1="0" x2="1" y2="1">
      <stop offset="0" stop-color="#0f766e"/>
      <stop offset="1" stop-color="#14b8a6"/>
    </linearGradient>
    <filter id="shadow"><feDropShadow dx="0" dy="12" stdDeviation="18" flood-opacity=".35"/></filter>
  </defs>
  <rect width="1200" height="675" fill="url(#bg)"/>
  <g opacity=".13" stroke="#5eead4" stroke-width="1">
    <path d="M0 90H1200M0 180H1200M0 270H1200M0 360H1200M0 450H1200M0 540H1200M0 630H1200"/>
    <path d="M100 0V675M200 0V675M300 0V675M400 0V675M500 0V675M600 0V675M700 0V675M800 0V675M900 0V675M1000 0V675M1100 0V675"/>
  </g>
  <g transform="translate(82 70)" filter="url(#shadow)">
    <rect width="1036" height="535" rx="28" fill="#f8fafc"/>
    <rect width="1036" height="62" rx="28" fill="#111827"/>
    <rect y="36" width="1036" height="26" fill="#111827"/>
    <circle cx="30" cy="31" r="7" fill="#fb7185"/><circle cx="54" cy="31" r="7" fill="#fbbf24"/><circle cx="78" cy="31" r="7" fill="#34d399"/>
    <text x="104" y="39" font-family="Arial, sans-serif" font-size="22" fill="#fff" font-weight="700">XLSForm AI Translator</text>

    <g transform="translate(35 94)">
      <rect width="640" height="390" rx="20" fill="#ffffff" stroke="#dbe3ea"/>
      <rect x="20" y="20" width="54" height="54" rx="14" fill="url(#accent)"/>
      <text x="47" y="54" text-anchor="middle" font-family="Arial, sans-serif" font-size="19" fill="#fff" font-weight="700">XT</text>
      <text x="92" y="44" font-family="Arial, sans-serif" font-size="25" fill="#0f172a" font-weight="700">XLSForm AI Translator</text>
      <text x="92" y="68" font-family="Arial, sans-serif" font-size="14" fill="#64748b">Translate labels and hints without changing form logic.</text>

      <rect x="20" y="94" width="600" height="176" rx="16" fill="#f8fafc" stroke="#dbe3ea"/>
      <text x="38" y="124" font-family="Arial, sans-serif" font-size="18" fill="#0f172a" font-weight="700">Languages</text>
      <text x="38" y="151" font-family="Arial, sans-serif" font-size="13" fill="#475569">Source</text>
      <rect x="38" y="162" width="262" height="42" rx="8" fill="#fff" stroke="#cbd5e1"/>
      <text x="53" y="188" font-family="Arial, sans-serif" font-size="14" fill="#0f172a">Portuguese</text>
      <text x="336" y="151" font-family="Arial, sans-serif" font-size="13" fill="#475569">Target</text>
      <rect x="336" y="162" width="262" height="42" rx="8" fill="#fff" stroke="#cbd5e1"/>
      <text x="351" y="188" font-family="Arial, sans-serif" font-size="14" fill="#0f172a">English</text>
      <text x="38" y="230" font-family="Arial, sans-serif" font-size="13" fill="#475569">Language variant</text>
      <rect x="38" y="240" width="560" height="42" rx="8" fill="#fff" stroke="#cbd5e1"/>
      <text x="53" y="266" font-family="Arial, sans-serif" font-size="14" fill="#0f172a">Portuguese of Mozambique</text>

      <rect x="20" y="286" width="600" height="84" rx="16" fill="#f8fafc" stroke="#dbe3ea"/>
      <text x="38" y="316" font-family="Arial, sans-serif" font-size="18" fill="#0f172a" font-weight="700">XLSForm options</text>
      <rect x="40" y="334" width="15" height="15" rx="3" fill="#0f766e"/><path d="M44 341l3 3 6-7" fill="none" stroke="#fff" stroke-width="2"/>
      <text x="64" y="347" font-family="Arial, sans-serif" font-size="14" fill="#334155">survey</text>
      <rect x="142" y="334" width="15" height="15" rx="3" fill="#0f766e"/><path d="M146 341l3 3 6-7" fill="none" stroke="#fff" stroke-width="2"/>
      <text x="166" y="347" font-family="Arial, sans-serif" font-size="14" fill="#334155">choices</text>
      <rect x="250" y="334" width="15" height="15" rx="3" fill="#fff" stroke="#94a3b8"/>
      <text x="274" y="347" font-family="Arial, sans-serif" font-size="14" fill="#334155">settings</text>

      <rect x="20" y="386" width="282" height="48" rx="10" fill="#dff4f1"/>
      <text x="161" y="416" text-anchor="middle" font-family="Arial, sans-serif" font-size="15" fill="#0f766e" font-weight="700">Translate selection</text>
      <rect x="318" y="386" width="302" height="48" rx="10" fill="url(#accent)"/>
      <text x="469" y="416" text-anchor="middle" font-family="Arial, sans-serif" font-size="15" fill="#fff" font-weight="700">Translate XLSForm</text>
    </g>

    <g transform="translate(705 95)">
      <rect width="296" height="390" rx="20" fill="#0f172a"/>
      <text x="28" y="44" font-family="Arial, sans-serif" font-size="18" fill="#5eead4" font-weight="700">FORM LOGIC</text>
      <text x="28" y="76" font-family="monospace" font-size="14" fill="#cbd5e1">${name}</text>
      <text x="28" y="105" font-family="monospace" font-size="14" fill="#cbd5e1">selected(${choice})</text>
      <text x="28" y="134" font-family="monospace" font-size="14" fill="#cbd5e1">if(${age} &gt;= 18)</text>
      <rect x="28" y="170" width="240" height="1" fill="#334155"/>
      <text x="28" y="210" font-family="Arial, sans-serif" font-size="16" fill="#fff" font-weight="700">Preserved during translation</text>
      <g font-family="Arial, sans-serif" font-size="14" fill="#94a3b8">
        <text x="28" y="245">✓ Variable names</text>
        <text x="28" y="276">✓ Formulas and placeholders</text>
        <text x="28" y="307">✓ XLSForm structure</text>
        <text x="28" y="338">✓ Formatting and logic</text>
      </g>
    </g>
  </g>
</svg>